<svg xmlns="http://www.w3.org/2000/svg" xmlns:svg="http://www.w3.org/2000/svg" xmlns:xlink="http://www.w3.org/1999/xlink" id="Layer_1" x="0" y="0" version="1.1" viewBox="0 0 1984.3 1524.6" xml:space="preserve" style="enable-background:new 0 0 1984.3 1524.6"><style type="text/css">.st0{fill:#010101}.st1{fill:#fff}</style><switch><g><g><g><g><g><path d="M490.1,1010.5H329.4L135,1199.2l1.5-188.7c-47-0.7-115.6,0.7-136.5,0l1.5,512.9h137.7v-201.6l202.9,201.6 h169.1l-272-268.3L490.1,1010.5z" class="st0"/><rect width="139.5" height="512.9" x="549.2" y="1010.5" class="st0"/><polygon points="1240.3 1010.5 1240.3 1523.4 1379.8 1523.4 1379.8 1010.5 1240.3 1010.5" class="st0"/><polygon points="1806.7 1262.6 1979 1010.5 1835.3 1010.5 1723.2 1178.1 1614.4 1010.5 1472.8 1010.5 1642.9 1264.7 1463.3 1523.4 1603.8 1523.4 1723.2 1351.4 1841.6 1523.4 1984.3 1523.4" class="st0"/><path d="M1118.1,1265.6l-65.5,40.2c-19,8.4-32.6,9.1-40.4,2.1c-11.3-10.1-12.9-36.6-4.9-79 c7.2-37.6,20.5-80.2,31.2-114.4c6-19.1,11.2-35.6,13.7-46.4c3.9-16.5,4.1-30.2,0.7-40.7c-3.1-9.7-9.5-16.2-17.8-18.5 c-15.7-4.2-33.1,7.7-38.9,26.7L932.1,1246c-7.6,25-20.1,42.3-31.1,43c-10.1,0.7-18.5-12.8-23.8-24.2l-47.8-103.1 c-11.9-25.7-36.5-41.8-53.6-35c-5.4,2.2-12.3,7.5-14.2,20.8c-1.5,10.8,0.6,24.8,6.2,41.7c11.6,34.7,27.6,62.5,43.1,89.4 c28.7,49.7,55.8,96.7,54.1,183.3c-0.6,31.7,14.7,55.9,38.9,61.5c3.3,0.8,6.6,1.1,9.9,1.1c17.8,0,34.5-11.2,43.3-30 c35.9-76.4,103.4-122.7,181.3-171.2c14.7-9.1,24.8-18.4,29.9-27.6c4.9-8.7,5.2-17.4,0.8-24.4 C1160.3,1257.3,1136,1254.6,1118.1,1265.6z" class="st0"/><ellipse cx="1228.7" cy="671.3" class="st0" rx="184.7" ry="184.7" transform="matrix(0.9538 -0.3003 0.3003 0.9538 -144.8841 399.9894)"/></g></g></g><g><path d="M526.6,514c3.2,3.8,6.5,7.6,9.8,11.4c13.5,16.2,22.4,30.5,30.1,55.7l61.9,203.2h0h-21.9 c-20.2,0-36.6,16.4-36.6,36.6l0,0h83.2l139.8,66.1c8.6-18.3,0.8-40.1-17.4-48.7l-36.7-17.3h105.5l0,0 c0-20.2-16.4-36.6-36.6-36.6h-95.5h0c-16.7,0-31.5-10.9-36.3-26.9l-49.1-161.3c-12.2-42.4,15.9-70.1,42.3-73.4 c24.1-3,36.2,12.6,47.6,50.2l43.7,143.3h0h-21.9c-20.2,0-36.6,16.4-36.6,36.6H785l139.8,66.1c8.6-18.3,0.8-40.1-17.4-48.7 l-36.7-17.3h105.5c0-20.2-16.4-36.6-36.6-36.6H844h0c-16.7,0-31.5-10.9-36.3-26.9L735.1,451l12.4-6.6 c172-72.2,356,56.7,484.1-67.1c0.3-0.3,0.6-0.6,0.8-0.8c15.9-14.4,31.7-29.1,78.6,0.2c50.4,31.6,161.7,114.1,212.2,255.1 c0,0,30.6-10.9,22.1-48.3c-8.5-37.5-70.5-145.5-197.3-241.3c-23.2-17.6-44.1-32.2-61.5-43.9c25.3-108.4-106.3-239.2-234.8-177.6 C959.3,34,856.6-1.3,762,0C511.7,3.6,318.4,264.6,526.3,513.6l0,0C526.4,513.8,526.5,513.9,526.6,514z" class="st0"/><circle cx="1142.9" cy="244.3" r="55.5" class="st1"/><g><circle cx="1155.9" cy="272" r="35.5" class="st0"/></g></g></g></g></switch></svg>