<svg xmlns="http://www.w3.org/2000/svg" xmlns:svg="http://www.w3.org/2000/svg" xmlns:xlink="http://www.w3.org/1999/xlink" id="svg2" width="763.541" height="763.541" version="1.0"><defs id="defs4"><linearGradient id="linearGradient3648"><stop id="stop3650" offset="0" style="stop-color:#fff;stop-opacity:1"/><stop id="stop3652" offset="1" style="stop-color:#adadad;stop-opacity:1"/></linearGradient><linearGradient id="linearGradient3640"><stop id="stop3642" offset="0" style="stop-color:#3d3d3d;stop-opacity:1"/><stop id="stop3644" offset="1" style="stop-color:#ccc;stop-opacity:0"/></linearGradient><linearGradient id="linearGradient3708"><stop id="stop3710" offset="0" style="stop-color:#646464;stop-opacity:1"/><stop id="stop3712" offset="1" style="stop-color:#000;stop-opacity:0"/></linearGradient><linearGradient id="linearGradient3687"><stop id="stop3689" offset="0" style="stop-color:#000;stop-opacity:1"/><stop id="stop3691" offset="1" style="stop-color:#000;stop-opacity:0"/></linearGradient><linearGradient id="linearGradient3693" x1="-500.525" x2="-500.525" y1="1106.818" y2="722.66" gradientUnits="userSpaceOnUse" xlink:href="#linearGradient3687"/><linearGradient id="linearGradient3695" x1="-500.525" x2="-500.525" y1="1106.818" y2="722.66" gradientUnits="userSpaceOnUse" xlink:href="#linearGradient3687"/><linearGradient id="linearGradient3697" x1="-500.525" x2="-500.525" y1="1106.818" y2="722.66" gradientUnits="userSpaceOnUse" xlink:href="#linearGradient3687"/><linearGradient id="linearGradient3699" x1="-500.525" x2="-500.525" y1="1106.818" y2="722.66" gradientUnits="userSpaceOnUse" xlink:href="#linearGradient3687"/><linearGradient id="linearGradient3701" x1="-500.525" x2="-500.525" y1="1106.818" y2="722.66" gradientUnits="userSpaceOnUse" xlink:href="#linearGradient3687"/></defs><metadata id="metadata7"/><g id="layer1" transform="translate(3739.1853,-41.383514)"><g id="g3209"><path id="path3204" d="m-3085.1983 553.74734c0 63.78595-51.0804 115.49422-114.0847 115.49422-63.0042 0-114.0822-51.70827-114.0822-115.49422 0-63.78574 51.078-115.49376 114.0822-115.49376 63.0043 0 114.0847 51.70802 114.0847 115.49376z" style="fill-opacity:1;fill:#000"/><path id="path3202" d="m-3499.7177 140.36479c-161.5217 2.35967-284.5793 180.38224-126.8046 341.99599l42.0522 110.93491c6.9794 25.35905-16.7046 81.16438-6.2181 96.7456 12.0784-23.92672 15.1194-58.1351 31.088-62.07824 28.0815 19.87357 69.6214 26.61551 93.1001 52.24248 8.7721-24.84423-26.8104-37.53228-56.6132-51.75895 27.8509 4.65813 47.1211-10.46714 67.741 13.86695 3.0387-12.31012-0.8075-21.72309-8.8367-29.3461l-12.5976-17.25299c23.2894 12.39094 81.2592 12.31386 94.5722 34.02222 5.152-41.08066-43.5957-27.0502-66.5944-39.34326 14.9233 1.85232 29.7497-5.58569 44.5068-3.54744-3.9545-11.5234-10.747-16.50832-20.7813-15.64056-79.1297 18.89929-84.6994-115.02939-83.6104-153.0195 106.2215-45.15179 213.495 35.84535 298.9397-41.92295 27.9778-41.87649 143.4536 67.4941 179.0039 160.11415 53.1569-22.52125-98.4853-169.62429-142.5168-209.45435 23.001-61.25648-66.62-150.42858-147.5885-111.09653-56.9707-54.20552-120.418-76.31471-178.8423-75.46143zm-42.8666 331.03132c7.7455-0.14014 14.0142 4.0653 15.2187 12.73828l17.1799 82.23395c-9.2591 2.66988-13.2875 11.9518-11.4533 28.70095 3.9224-4.63711 5.5352-12.55958 14.5611-9.99716l21.2728 27.41131c-72.3438 5.66862-77.9182-35.28801-90.4882-103.03368 3.8324-25.14672 20.8-37.77358 33.709-38.05365z" style="fill-opacity:1;fill:#000"/><path id="path4159" d="m463.91255 78.701393a15.404826 14.520943 0 1 1-30.80966 0 15.404826 14.520943 0 1 1 30.80966 0z" transform="matrix(2.0593305,0,0,2.3234417,-4182.9265,106.09335)" style="fill-opacity:1;fill:#fff"/><path id="path4159-1" d="m463.91255 78.701393a15.404826 14.520943 0 1 1-30.80966 0 15.404826 14.520943 0 1 1 30.80966 0z" transform="matrix(1.3531424,0,0,1.5266833,-3852.2505,190.26722)" style="fill-opacity:1;fill:#000"/></g></g></svg>